<?xml version="1.0" encoding="UTF-8"?>
<svg version="1.1" xmlns="http://www.w3.org/2000/svg" width="47" height="47">
<path d="M0 0 C15.51 0 31.02 0 47 0 C47 15.51 47 31.02 47 47 C31.49 47 15.98 47 0 47 C0 31.49 0 15.98 0 0 Z " fill="#F9F9FC" transform="translate(0,0)"/>
<path d="M0 0 C15.51 0 31.02 0 47 0 C47 15.51 47 31.02 47 47 C31.49 47 15.98 47 0 47 C0 31.49 0 15.98 0 0 Z M6.2265625 11.12109375 C2.36647313 17.03416059 2.12582369 23.13147183 3 30 C5.26611685 35.71211271 9.72087353 41.4135061 15.29296875 44.109375 C21.45263503 46.13593187 28.58092947 46.0554839 34.5 43.3125 C37.78562573 41.37377674 39.91967279 39.23606455 42 36 C42.86625 34.7315625 42.86625 34.7315625 43.75 33.4375 C45.85824538 27.63982522 46.17228646 21.31894088 44.09765625 15.4453125 C42.92995962 13.02952158 42.92995962 13.02952158 41 10 C39.68 10.33 38.36 10.66 37 11 C37 11.66 37 12.32 37 13 C36.34 13 35.68 13 35 13 C34.67 14.65 34.34 16.3 34 18 C31.69 18 29.38 18 27 18 C27 16.68 27 15.36 27 14 C26.34 14 25.68 14 25 14 C24.67 12.35 24.34 10.7 24 9 C28.62 9 33.24 9 38 9 C35.98163747 4.96327494 35.20260901 4.0788404 31.12109375 2.54296875 C20.77462499 -0.10557482 12.87822861 3.11308232 6.2265625 11.12109375 Z " fill="#FEFEFE" transform="translate(0,0)"/>
<path d="M0 0 C3.62493334 -0.05787784 7.24974857 -0.0935542 10.875 -0.125 C11.90753906 -0.14175781 12.94007812 -0.15851562 14.00390625 -0.17578125 C14.99003906 -0.18222656 15.97617187 -0.18867187 16.9921875 -0.1953125 C18.35899658 -0.21102295 18.35899658 -0.21102295 19.75341797 -0.22705078 C22 0 22 0 24 2 C19.38 2 14.76 2 10 2 C10.33 3.65 10.66 5.3 11 7 C11.66 7 12.32 7 13 7 C13 8.32 13 9.64 13 11 C15.31 11 17.62 11 20 11 C20.33 9.35 20.66 7.7 21 6 C21.66 6 22.32 6 23 6 C23.33 5.01 23.66 4.02 24 3 C24.66 3 25.32 3 26 3 C24.66666667 6.33333333 23.33333333 9.66666667 22 13 C20.02 13 18.04 13 16 13 C16.226875 14.03125 16.45375 15.0625 16.6875 16.125 C17.04270422 20.52953234 16.31594445 22.31164402 14 26 C12 28 12 28 9.8359375 28.1953125 C9.02382813 28.17210938 8.21171875 28.14890625 7.375 28.125 C6.55773438 28.10695313 5.74046875 28.08890625 4.8984375 28.0703125 C4.27195312 28.04710938 3.64546875 28.02390625 3 28 C2.34 29.32 1.68 30.64 1 32 C-3 32 -3 32 -4.8125 30.4375 C-6.4848094 27.00486492 -5.8265749 24.65070581 -5 21 C-4.67 20.67 -4.34 20.34 -4 20 C-3.83333333 17 -3.83333333 17 -4 14 C-4.33 13.67 -4.66 13.34 -5 13 C-5.04080783 11.00041636 -5.04254356 8.99954746 -5 7 C-4.34 7 -3.68 7 -3 7 C-2.690625 6.21625 -2.38125 5.4325 -2.0625 4.625 C-1 2 -1 2 0 0 Z " fill="#7868F9" transform="translate(14,7)"/>
<path d="M0 0 C1.49609375 1.0703125 1.49609375 1.0703125 2.49609375 3.0703125 C-5.42390625 2.7403125 -13.34390625 2.4103125 -21.50390625 2.0703125 C-22.16390625 3.7203125 -22.82390625 5.3703125 -23.50390625 7.0703125 C-23.83390625 7.7303125 -24.16390625 8.3903125 -24.50390625 9.0703125 C-25.16390625 9.0703125 -25.82390625 9.0703125 -26.50390625 9.0703125 C-26.17390625 10.1015625 -25.84390625 11.1328125 -25.50390625 12.1953125 C-24.54555516 15.57692277 -24.18274307 18.53751754 -24.50390625 22.0703125 C-25.16390625 23.0603125 -25.82390625 24.0503125 -26.50390625 25.0703125 C-26.50390625 28.492844 -26.45820928 31.01026952 -24.09375 33.63671875 C-22.623365 34.85682545 -21.06763044 35.9723785 -19.50390625 37.0703125 C-20.98890625 37.5653125 -20.98890625 37.5653125 -22.50390625 38.0703125 C-28.74947913 32.2867409 -32.58677093 28.02794833 -32.94140625 19.1953125 C-32.74696405 12.64909189 -31.3707393 8.11377508 -26.85546875 3.3203125 C-18.7964162 -3.9997003 -9.66615865 -5.25123307 0 0 Z " fill="#ECECF3" transform="translate(35.50390625,4.9296875)"/>
<path d="M0 0 C4.95 0 9.9 0 15 0 C14.34 1.32 13.68 2.64 13 4 C12.34 4 11.68 4 11 4 C10.67 5.65 10.34 7.3 10 9 C7.69 9 5.38 9 3 9 C3 7.68 3 6.36 3 5 C2.34 5 1.68 5 1 5 C0.67 3.35 0.34 1.7 0 0 Z " fill="#E7E5FE" transform="translate(24,9)"/>
<path d="M0 0 C0.66 0.33 1.32 0.66 2 1 C1.42437172 4.33864404 0.40936384 5.69102632 -2 8 C-2.33 8.99 -2.66 9.98 -3 11 C-2.195625 10.835 -1.39125 10.67 -0.5625 10.5 C3.65887352 9.90752652 7.74664545 9.91493291 12 10 C12 10.66 12 11.32 12 12 C9.36 12 6.72 12 4 12 C3.34 13.32 2.68 14.64 2 16 C-2 16 -2 16 -3.8125 14.4375 C-5.53712652 10.89747714 -4.98998437 8.76194061 -4 5 C-1.9375 2.0625 -1.9375 2.0625 0 0 Z " fill="#7F71F9" transform="translate(13,23)"/>
<path d="M0 0 C3.96 0 7.92 0 12 0 C11 4 11 4 9 7 C5.375 7.1875 5.375 7.1875 2 7 C0.5393715 4.35261084 0 3.10551666 0 0 Z " fill="#F5F4FE" transform="translate(16,25)"/>
<path d="M0 0 C0 0.99 0 1.98 0 3 C0.66 3 1.32 3 2 3 C2 4.32 2 5.64 2 7 C-1.96 7 -5.92 7 -10 7 C-9.39816251 4.97954558 -8.72693904 2.97888961 -8 1 C-5.29120665 -0.35439668 -2.99066732 -0.06501451 0 0 Z " fill="#F5F4FE" transform="translate(22,10)"/>
<path d="M0 0 C4.95 0 9.9 0 15 0 C15 1.32 15 2.64 15 4 C10.38 4 5.76 4 1 4 C0.67 4.99 0.34 5.98 0 7 C-0.33 7 -0.66 7 -1 7 C-0.67 4.69 -0.34 2.38 0 0 Z " fill="#C3BCFC" transform="translate(12,19)"/>
<path d="M0 0 C2 3 2 3 3 6 C5.31 6.33 7.62 6.66 10 7 C10.33 6.01 10.66 5.02 11 4 C11.99 4.33 12.98 4.66 14 5 C12.25 8.875 12.25 8.875 10 10 C10 9.34 10 8.68 10 8 C5.05 8.33 0.1 8.66 -5 9 C-3.9957244 3.97862202 -3.60239038 3.13756581 0 0 Z " fill="#9D92FB" transform="translate(15,25)"/>
<path d="M0 0 C3.3 0 6.6 0 10 0 C9.67 1.32 9.34 2.64 9 4 C9 3.01 9 2.02 9 1 C6.36 1.33 3.72 1.66 1 2 C0.34 3.98 -0.32 5.96 -1 8 C2.96 8 6.92 8 11 8 C11.33 7.34 11.66 6.68 12 6 C12 6.99 12 7.98 12 9 C7.38 9 2.76 9 -2 9 C-2.33 9.99 -2.66 10.98 -3 12 C-4 11 -4 11 -4.0625 7.9375 C-4.041875 6.968125 -4.02125 5.99875 -4 5 C-3.34 5 -2.68 5 -2 5 C-1.34 3.35 -0.68 1.7 0 0 Z " fill="#AAA0FB" transform="translate(13,9)"/>
<path d="M0 0 C0 0.33 0 0.66 0 1 C-6.27 1 -12.54 1 -19 1 C-13.7581208 -4.2418792 -6.30014818 -2.05719124 0 0 Z " fill="#FAFBFD" transform="translate(34,5)"/>
<path d="M0 0 C3.58939619 3.09993307 4.8553062 6.34240483 5.265625 11.04296875 C5.26046875 12.08066406 5.2553125 13.11835938 5.25 14.1875 C5.25515625 15.23292969 5.2603125 16.27835938 5.265625 17.35546875 C5 20 5 20 3 22 C3.01160156 21.11957031 3.02320313 20.23914063 3.03515625 19.33203125 C3.04417969 18.17058594 3.05320312 17.00914063 3.0625 15.8125 C3.07410156 14.66394531 3.08570313 13.51539063 3.09765625 12.33203125 C3.01192832 9.40699414 2.67849023 6.83683709 2 4 C0.68 4.33 -0.64 4.66 -2 5 C-1.34 3.35 -0.68 1.7 0 0 Z " fill="#E1E0E6" transform="translate(40,10)"/>
<path d="M0 0 C0.66 0.33 1.32 0.66 2 1 C0.71937515 2.7074998 -0.61767557 4.37373596 -2 6 C-2.66 6 -3.32 6 -4 6 C-4.99 6.33 -5.98 6.66 -7 7 C-5.55609075 3.19333016 -3.65047197 1.73397418 0 0 Z " fill="#EEEDF6" transform="translate(13,6)"/>
<path d="M0 0 C2 3 2 3 2 6 C0.35 6 -1.3 6 -3 6 C-1.125 1.125 -1.125 1.125 0 0 Z " fill="#DCD8FD" transform="translate(13,27)"/>
<path d="M0 0 C0.66 0 1.32 0 2 0 C0.8141763 3.37503669 -0.27573689 5.64722731 -3 8 C-3.33 7.34 -3.66 6.68 -4 6 C-3.67 5.01 -3.34 4.02 -3 3 C-2.34 3 -1.68 3 -1 3 C-0.67 2.01 -0.34 1.02 0 0 Z " fill="#8476F9" transform="translate(38,10)"/>
<path d="M0 0 C0.66 0.33 1.32 0.66 2 1 C1.75 2.875 1.75 2.875 1 5 C-1.0625 6.25 -1.0625 6.25 -3 7 C-2.38722388 4.03824877 -1.74627478 2.61941217 0 0 Z " fill="#6B5AF8" transform="translate(13,23)"/>
</svg>
